<?xml version="1.0" encoding="UTF-8"?>
<svg xmlns="http://www.w3.org/2000/svg" width="600" height="600" viewBox="0 0 600 600">
  <!-- Background Star -->
  <polygon points="300,50 370,230 550,230 400,350 450,550 300,430 150,550 200,350 50,230 230,230" fill="#00A7D7" stroke="#FFFFFF" stroke-width="10"/>
  
  <!-- Commercial Kitchen Appliance Icon (Abstract) -->
  <rect x="250" y="180" width="100" height="180" rx="10" fill="#000000" stroke="#FFFFFF" stroke-width="5"/>
  <circle cx="280" cy="220" r="8" fill="#FFFFFF"/>
  <line x1="250" y1="260" x2="350" y2="260" stroke="#FFFFFF" stroke-width="5"/>
  
  <!-- Snowflake Elements -->
  <circle cx="100" cy="100" r="10" fill="#FFFFFF"/>
  <line x1="90" y1="100" x2="110" y2="100" stroke="#FFFFFF" stroke-width="3"/>
  <line x1="100" y1="90" x2="100" y2="110" stroke="#FFFFFF" stroke-width="3"/>
  
  <circle cx="500" cy="100" r="10" fill="#FFFFFF"/>
  <line x1="490" y1="100" x2="510" y2="100" stroke="#FFFFFF" stroke-width="3"/>
  <line x1="500" y1="90" x2="500" y2="110" stroke="#FFFFFF" stroke-width="3"/>
  
  <!-- Business Name COOL STAR -->
  <g transform="translate(100, 520)">
    <text x="0" y="50" font-family="Arial, sans-serif" font-weight="bold" font-size="70">
      <tspan fill="#000000">COOL</tspan>
      <tspan fill="#00A7D7">STAR</tspan>
    </text>
  </g>
</svg>
